<svg width="512" height="512" viewBox="0 0 512 512" fill="none" xmlns="http://www.w3.org/2000/svg">
<circle cx="256" cy="256" r="256" fill="#43B64F"/>
<path d="M256 0C114.6 0 0 114.6 0 256C0 397.4 114.6 512 256 512C397.4 512 512 397.4 512 256C512 114.6 397.4 0 256 0ZM382.6 302.6L279.5 405.7C270.7 414.6 260.9 416 256 416C251.119 416 241.35 414.609 233.35 406.602L129.4 302.6C116.9 290.1 116.9 269.85 129.4 257.35C141.9 244.85 162.15 244.85 174.65 257.35L224 306.8V128C224 110.31 238.33 96 256 96C273.67 96 288 110.31 288 128V306.8L337.38 257.42C349.88 244.92 370.13 244.92 382.63 257.42C395.13 269.92 395.1 290.1 382.6 302.6Z" fill="#8FD697"/>
</svg>
