<svg width="32" height="36" viewBox="0 0 32 36" fill="none" xmlns="http://www.w3.org/2000/svg">
<g clip-path="url(#clip0_211_6)">
<path d="M0 6.75C0 5.50758 1.00758 4.5 2.25 4.5H29.25C30.4945 4.5 31.5 5.50758 31.5 6.75C31.5 7.99453 30.4945 9 29.25 9H2.25C1.00758 9 0 7.99453 0 6.75ZM0 6.75C0 5.50758 1.00758 4.5 2.25 4.5H29.25C30.4945 4.5 31.5 5.50758 31.5 6.75C31.5 7.99453 30.4945 9 29.25 9H2.25C1.00758 9 0 7.99453 0 6.75ZM0 6.75C0 5.50758 1.00758 4.5 2.25 4.5H29.25C30.4945 4.5 31.5 5.50758 31.5 6.75C31.5 7.99453 30.4945 9 29.25 9H2.25C1.00758 9 0 7.99453 0 6.75Z" fill="#43B64F"/>
<path d="M2.25 15.75C1.00758 15.75 0 16.7555 0 18C0 19.2445 1.00758 20.25 2.25 20.25H29.25C30.4945 20.25 31.5 19.2445 31.5 18C31.5 16.7555 30.4945 15.75 29.25 15.75H2.25Z" fill="#8FD697"/>
<path d="M2.25 31.5H29.25C30.4945 31.5 31.5 30.4945 31.5 29.25C31.5 28.0055 30.4945 27 29.25 27H2.25C1.00758 27 0 28.0055 0 29.25C0 30.4945 1.00758 31.5 2.25 31.5Z" fill="#43B64F"/>
</g>
<defs>
<clipPath id="clip0_211_6">
<rect width="31.5" height="36" fill="white"/>
</clipPath>
</defs>
</svg>
