<svg xmlns="http://www.w3.org/2000/svg" viewBox="0 0 523.74 675.87"><defs><style>.cls-1{fill:#fdd60b;}.cls-1,.cls-10,.cls-13,.cls-2,.cls-5,.cls-8,.cls-9{stroke:#231f20;}.cls-1,.cls-10,.cls-13,.cls-15,.cls-16,.cls-17,.cls-18,.cls-19,.cls-2,.cls-20,.cls-21,.cls-22,.cls-23,.cls-3,.cls-4,.cls-5,.cls-8,.cls-9{stroke-miterlimit:10;}.cls-1,.cls-10,.cls-13,.cls-15,.cls-16,.cls-17,.cls-18,.cls-2,.cls-21,.cls-22,.cls-4,.cls-5,.cls-8,.cls-9{stroke-width:5px;}.cls-2{fill:#fee28b;}.cls-17,.cls-19,.cls-3,.cls-8{fill:none;}.cls-3{stroke:#b8822c;}.cls-20,.cls-23,.cls-3{stroke-width:2px;}.cls-4{fill:#5c96d0;stroke:#000;}.cls-5{fill:#a0dcf3;}.cls-6{fill:#75451c;}.cls-7{fill:#ba852c;}.cls-9{fill:#51371b;}.cls-10,.cls-11{fill:#764e2a;}.cls-12{fill:#3d2815;}.cls-13,.cls-21{fill:#43b64f;}.cls-14,.cls-20,.cls-22{fill:#231f20;}.cls-15{fill:#e65040;}.cls-15,.cls-16,.cls-17,.cls-18,.cls-19,.cls-20,.cls-21,.cls-22,.cls-23{stroke:#1c1d1d;}.cls-16{fill:#e7513f;}.cls-18,.cls-23{fill:#eec77e;}.cls-19{stroke-width:3px;}.cls-24{fill:#1c1d1d;}</style></defs><g id="circle-background"><path class="cls-1" d="M278.22,214.13C165,219.35,73.56,310.27,67.74,423.46c-6.34,123.43,88.53,226.18,209,232.61a1.77,1.77,0,0,0,1.86-1.76l.07-11a1.74,1.74,0,0,0-1.66-1.76c-107.39-6-192.89-94-195-202.35A206.43,206.43,0,0,1,295.79,228.53c110.89,3.74,199.63,94.81,199.63,206.61,0,111.17-87.75,201.84-197.77,206.53a1.77,1.77,0,0,0-1.69,1.71l-.3,11a1.76,1.76,0,0,0,1.83,1.81C415.6,651.6,509.94,554.38,509.94,435.14,509.94,309.47,405.18,208.28,278.22,214.13Z"/><path class="cls-2" d="M296,512.67c-126.75-40.42-166.68,18.57-166.68,18.57h0a186,186,0,0,0,159.36,89.92c78.87,0,147-44.69,174.12-113.92C462.88,507.05,413.07,550,296,512.67Z"/><g id="grains"><circle class="cls-3" cx="241.85" cy="537.89" r="2.4"/><circle class="cls-3" cx="251.09" cy="538.63" r="1.66"/><circle class="cls-3" cx="246.6" cy="545.48" r="1.29"/></g><path class="cls-4" d="M467.19,491.39s-74,40.78-158,9.37-148-27-186.31,20.79a93.32,93.32,0,0,1-13-30.16s42.56-58.39,155.94-37,212.57-38,212.57-38C478.72,419.8,482.83,466.64,467.19,491.39Z"/><path class="cls-5" d="M309.9,499.85s111-3.8,167.81-42.34c-1.17,11.44-8.48,32.87-10.52,33.88C452.28,498.78,383.54,527.68,309.9,499.85Z"/><g id="palm-tree"><g id="tree-base"><path id="tree-shadow" class="cls-6" d="M234.12,525.3s23,.42,17.18-7.87-13.14-7.33-13.14-7.33-13.4-1.15-18.47-7.71-8.86-3.19-8.86-3.19c9.07-25.3-54.38-57.86-52-179.27a33.65,33.65,0,0,1,2.15-11c.78-1.76.59-4.34-2.17-9.39-4.56-8.32,2.81-17.05,2.81-17.05a7.12,7.12,0,0,0,2-7.57,26.23,26.23,0,0,1,4.57-22s-13.11-26-21.32,4.85c0,0-1.84,13.27-2.42,15.13s-8.28,18.28-4.61,29.95l-2.23,10.7a34.64,34.64,0,0,0-.7,8.86c.27,5.52,1.13,14,1.26,14.8.29,1.78-2.62,27.78,5.35,43.29,0,0,3.59,74,28.31,109.76a6.8,6.8,0,0,1-1.71,9.48c-6.15,4.23-15,10.42-15.54,11.49-.89,1.66-4.07,2.92-4.07,2.92s-4.89,3.89,5,4.89,28.16,1.72,35.66,6,30.21,2.05,34.54,1.29S230.29,525.38,234.12,525.3Z"/><path id="tree-color" class="cls-7" d="M234,524.91s23,.42,17.17-7.87-13.13-7.33-13.13-7.33-13.41-1.15-18.48-7.71-8.85-3.19-8.85-3.19c9.08-25.33-54.53-57.93-52-179.71,0-1.38,1.29-9,2-10.18,1-1.77,1-4.35-2-9.76-4.56-8.32,2.81-17.05,2.81-17.05a7.13,7.13,0,0,0,2-7.57c-1.38-5-.5-14,5.46-22,0,0-9.71-18.57-11.46,4.85,0,0-1.84,13.27-2.43,15.13s-8.27,18.28-4.6,29.95l-2.24,10.7a35.1,35.1,0,0,0-.7,8.86c.27,5.52,1.13,14,1.26,14.8.3,1.78-2.62,27.78,5.36,43.29,0,0,4,82.19,32.5,115.21,0,0,7.62,25,15.13,29.38s19.46,2,23.78,1.29S230.21,525,234,524.91Z"/><g id="tree-strokes"><line class="cls-8" x1="143.53" y1="380.55" x2="163.99" y2="381.67"/><path class="cls-8" d="M138.18,337.26s15.22,6.33,21.12,7.31"/><path class="cls-8" d="M139.85,302.9s11.8,4.82,21.15,6.05"/><path class="cls-8" d="M144.85,271.1s1.57,3.6,9.6,6.6,8.21,3.69,8.21,3.69"/></g><path id="tree-outline" class="cls-8" d="M234.12,525.3s23,.42,17.18-7.87-13.14-7.33-13.14-7.33-13.4-1.15-18.47-7.71-8.86-3.19-8.86-3.19c9.09-25.36-54.66-58-52-180.1a40,40,0,0,1,2.26-10.49c.62-1.75.29-4.32-2.3-9.06-4.56-8.32,2.81-17.05,2.81-17.05a7.12,7.12,0,0,0,2-7.57,26.23,26.23,0,0,1,4.57-22s-13.11-26-21.32,4.85c0,0-1.84,13.27-2.42,15.13s-8.28,18.28-4.61,29.95l-2.23,10.7a34.64,34.64,0,0,0-.7,8.86c.27,5.52,1.13,14,1.26,14.8.29,1.78-2.62,27.78,5.35,43.29,0,0,3.54,73,27.81,109a7.85,7.85,0,0,1-2.1,10.83c-4.48,3.09-15.28,13.08-19.2,16-1.22.92,33.62,4.37,41.12,8.7s30.21,2.05,34.54,1.29S230.29,525.38,234.12,525.3Z"/></g><g id="coconuts"><circle class="cls-9" cx="145.33" cy="243.75" r="11.72"/><circle class="cls-10" cx="187.37" cy="247.11" r="9.58"/><circle class="cls-11" cx="168.2" cy="232.03" r="21.39"/><path class="cls-12" d="M157.05,250.28s-10.23-16.51,0-36.5c0,0-12.31,4.49-10.23,20C146.82,233.77,145.43,244.19,157.05,250.28Z"/><circle class="cls-8" cx="166.72" cy="232.94" r="21.39"/></g><g id="palms"><path id="palm-leaves" class="cls-13" d="M139.28,230.31s-3.75,26.59,22.62-13.41c0,0,4.63-3.7,11.34,0s10.06,2,15.89,29.5a20.5,20.5,0,0,0,6.8,9.57s.94,39.22,12,38.22c0,0-7.61,26.75,0,23.05l6.31,2.58s-20.44,36-2.87,33c0,0-9.55,54,12,28.6s18-33.48,18-33.48,11-4.88,9.07-18.49a34.61,34.61,0,0,1,5.18-23.39s8.09-7.95-6.46-29.9-16.9-18.36-16.9-18.36,17.61-3.72-4.9-28.16c0,0,20.84,32.21,25.35,23.83,0,0,6.69,31.61,21.2,29.64,0,0,9.35,29.69,25.17,35.63,0,0,20.55,37.61,27.08,31.44s8.14-52,8.14-52,18.57-7.73-23.88-36.63l-24.22-22.87S285,211.72,227.44,188c0,0,51.85,13.5,37.36-7.32,0,0,36.44,21.36,26.52,4,0,0,24.05,26.09,27.08,6.33,0,0,54.83,31.46,13-11.84,0,0,7.72-16.9-26.09-24.2,0,0-5.62-22.85-28.9-12.65s-2.42.35-2.42.35-15.88-16.1-34.15-.35c0,0-14.37-14.22-43.89,24.17,0,0,17.38-45.91,0-58,0,0,3-40.74-16.4-36.31,0,0-4.17-43.78-22.13-24.71,0,0-11.51-38.49-28.47-26,0,0-18.69-18.37-27-8.14s13.55,23.4,13.55,23.4-2.6,25.66,24.53,31.9c0,0-7.59,12.14,9.07,20.12,0,0-6.23,9.76,17,43.2,0,0-18.73-37-30.17-25.37,0,0-31.25-43.49-37.82-22.34,0,0-31.54-32.23-30.15-4.15,0,0-31.56-13.52-31.9,6.59,0,0-20.81-4.27-23.93,10.52s23.58,9.38,23.58,9.38,13.72,22.84,33.65,12c0,0,12.24,18.64,27,7.47,0,0,6.86,16.68,38.18,26.83,0,0-21.35-6.63-26.11,0,0,0-47-14.87-31.58,10.27,0,0-40.14-.27-27.81,16.07,0,0-34,18.83-16.89,26.08,0,0-15.12,26.2-5.78,33.2S47.47,224,47.47,224,60,243,73.15,205.92c0,0,12.82,10,23.18-10.4,0,0-2.61,17,30.55-1.39,0,0-89.58,36.86-43.4,35.94,0,0-27.34,2.25-27,24.07s14.58,3.68,14.58,3.68S46,297.9,62.15,301.5c0,0-3.49,38.72,7.18,36.86,0,0,10.09,3.68,10.59-15.49,0,0,14.85-1.25,6.8-15.41,0,0,26,6.09,11.36-35.65,0,0,16.73,24.74,18.09-18.32C116.17,253.49,139.55,275.51,139.28,230.31Z"/><g id="palm-strokes"><path class="cls-14" d="M119.91,28.72a93.39,93.39,0,0,1,15.52,10.64A132.74,132.74,0,0,1,149,52.5a138.05,138.05,0,0,1,21.22,31.36c1.45,2.82,2.67,5.74,3.95,8.64s2.36,5.88,3.31,8.9a136.55,136.55,0,0,1,4.86,18.32,143.9,143.9,0,0,1,2.37,37.53,240.58,240.58,0,0,0-6.18-36.67c-.33-1.5-.82-3-1.24-4.45s-.8-3-1.29-4.43c-1-2.92-1.87-5.86-3-8.72a161.8,161.8,0,0,0-7.27-16.91A173.56,173.56,0,0,0,146.05,55a178.58,178.58,0,0,0-12.27-13.85A137.93,137.93,0,0,0,119.91,28.72Z"/><path class="cls-14" d="M23.89,97.16a166.25,166.25,0,0,1,20.46-.57c6.83.22,13.66.71,20.45,1.58a205.66,205.66,0,0,1,20.27,3.57,176.77,176.77,0,0,1,19.8,5.86c3.25,1.16,6.41,2.54,9.59,3.9s6.27,2.92,9.27,4.66l2.27,1.27c.74.44,1.47.91,2.2,1.37l2.2,1.39c.74.45,1.47.91,2.17,1.43l4.23,3c1.35,1.08,2.67,2.21,4,3.32a82.83,82.83,0,0,1,13.9,15.38,74.55,74.55,0,0,1,8.92,18.49,93.8,93.8,0,0,0-10.89-17l-3.31-3.78a21,21,0,0,0-1.74-1.79l-1.79-1.75c-.6-.57-1.18-1.17-1.8-1.73l-1.9-1.62c-1.28-1.07-2.48-2.22-3.86-3.17a108.89,108.89,0,0,0-16.85-10.67c-2.93-1.59-6-3-9-4.37l-4.64-1.91c-1.53-.66-3.13-1.16-4.69-1.76a186.51,186.51,0,0,0-19.21-6c-6.49-1.72-13.09-3.07-19.72-4.31s-13.33-2.21-20-3S30.69,97.57,23.89,97.16Z"/><path class="cls-14" d="M32.12,225.71a60.22,60.22,0,0,1,3.2-7.33c1.2-2.39,2.56-4.69,4-7A93.67,93.67,0,0,1,49,198.58,85.17,85.17,0,0,1,74.84,179a79.82,79.82,0,0,1,15.38-5.49l4-.87c1.34-.24,2.69-.41,4-.61.67-.09,1.34-.22,2-.27l2-.16c1.36-.07,2.71-.21,4.06-.22a86.6,86.6,0,0,1,31.57,5.21,129,129,0,0,0-31.33-1.32,94.37,94.37,0,0,0-15.17,2.84c-1.26.28-2.46.74-3.69,1.11s-2.44.78-3.63,1.28-2.4.89-3.57,1.41L77,183.54a100,100,0,0,0-25.18,17.75,124.35,124.35,0,0,0-10.55,11.54A118,118,0,0,0,32.12,225.71Z"/><path class="cls-14" d="M128.65,209.19a52.35,52.35,0,0,0-7.35,4,67.63,67.63,0,0,0-6.73,4.9,73.45,73.45,0,0,0-6.15,5.53L107,225.13l-1.41,1.51c-1,1-1.84,2-2.73,3.09A110.07,110.07,0,0,0,86,257.89a138,138,0,0,0-5.51,15.59c-1.63,5.29-2.81,10.71-4,16.14a332,332,0,0,0-4.64,33.25A153.77,153.77,0,0,1,72.6,289c.45-2.81.75-5.64,1.38-8.43l.86-4.18c.29-1.4.7-2.77,1-4.16.66-2.78,1.57-5.49,2.42-8.22.43-1.37,1-2.69,1.47-4s1-2.69,1.58-4a100.56,100.56,0,0,1,8-15.26,86,86,0,0,1,10.62-13.56,74.18,74.18,0,0,1,13.21-11,60.71,60.71,0,0,1,7.49-4.13A39.24,39.24,0,0,1,128.65,209.19Z"/><path class="cls-14" d="M190.12,211.83a100.66,100.66,0,0,1,14.21,15.79,134.17,134.17,0,0,1,11.24,18.15,137.49,137.49,0,0,1,13.52,40.55c.65,3.53,1,7.1,1.38,10.65.23,3.58.57,7.14.53,10.72.11,3.58-.11,7.15-.24,10.72-.09,1.78-.29,3.56-.45,5.34s-.32,3.55-.63,5.31a152.38,152.38,0,0,1-11.59,40.83,228.47,228.47,0,0,0,7.71-41.26c.21-1.72.25-3.47.33-5.2s.23-3.47.25-5.21c0-3.47.11-6.94-.11-10.41s-.39-6.92-.67-10.37c-.43-3.43-.78-6.88-1.44-10.29a145,145,0,0,0-4.75-20.21,165.17,165.17,0,0,0-7.34-19.48A169,169,0,0,0,202.31,229,139.68,139.68,0,0,0,190.12,211.83Z"/><path class="cls-14" d="M213.93,201.34a202.26,202.26,0,0,1,19.16,10.76c6.19,3.93,12.26,8.08,18.11,12.51s11.54,9.12,17.06,14S279,248.76,284,254.18c2.51,2.71,4.85,5.58,7.22,8.41s4.59,5.8,6.67,8.87a130.1,130.1,0,0,1,11.29,19.12,102.19,102.19,0,0,1,7.54,20.86,84.58,84.58,0,0,1,2.18,21.92,106.2,106.2,0,0,0-4.55-21.25L312.52,307c-.67-1.67-1.4-3.32-2.1-5s-1.52-3.26-2.28-4.89L307,294.72c-.4-.8-.87-1.58-1.3-2.37-.9-1.56-1.71-3.15-2.67-4.68l-2.83-4.59c-1-1.52-2-3-3-4.48s-2.07-2.94-3.15-4.38c-2.1-2.92-4.37-5.72-6.62-8.54s-4.66-5.5-7.12-8.14q-7.25-8.06-15.2-15.46c-5.24-5-10.73-9.73-16.27-14.42s-11.27-9.18-17.09-13.55S220,205.46,213.93,201.34Z"/><path class="cls-14" d="M209.17,174.68a74.6,74.6,0,0,1,13.69-7.6,99.05,99.05,0,0,1,46.39-8A93.71,93.71,0,0,1,300,166.74a96.29,96.29,0,0,1,26.23,17.09,157,157,0,0,0-27.67-13.47,115.81,115.81,0,0,0-29.64-6.26,121.7,121.7,0,0,0-15.16-.13,128.81,128.81,0,0,0-15.12,1.8,130.8,130.8,0,0,0-14.9,3.6A119.39,119.39,0,0,0,209.17,174.68Z"/><path class="cls-14" d="M185.56,177.61a12.65,12.65,0,0,1-1,4.48,19.5,19.5,0,0,1-2.45,4,25.43,25.43,0,0,1-3.2,3.36,43.82,43.82,0,0,1-3.73,2.91l-3,2.15-.24-4.44c0-.89-.24-1.79-.36-2.73s-.21-1.93-.28-3-.15-2.08-.19-3.18a31.84,31.84,0,0,1,.07-3.49l.45-.22a12,12,0,0,1,2.52,2.63,15.63,15.63,0,0,1,1.72,3.13,12.44,12.44,0,0,1,.89,3.54,13.06,13.06,0,0,1-.36,3.85l-3.26-2.28a19.56,19.56,0,0,0,3.63-1.82,31.93,31.93,0,0,0,3.41-2.37,20.22,20.22,0,0,0,2.93-2.92,13,13,0,0,0,2-3.69Z"/><path class="cls-14" d="M152.86,197.4a35.79,35.79,0,0,1,4.81-3.28c.84-.5,1.71-.93,2.56-1.4l2.66-1.26,2.74-1.08,2.81-.92a47.44,47.44,0,0,1,5.82-1.26c2-.37,4-.52,6-.72a21.83,21.83,0,0,1,6,.59,22.51,22.51,0,0,1,2.91.84c.94.38,1.87.77,2.77,1.22a15,15,0,0,1,2.6,1.55,25.29,25.29,0,0,1,2.37,1.87l-.21.46c-1,0-2-.1-3-.19s-1.87-.28-2.82-.32-1.85-.17-2.75-.29a10.11,10.11,0,0,0-1.36-.11l-1.35-.1c-1.79-.24-3.58-.26-5.36-.58a38.11,38.11,0,0,0-5.45-.24,44.13,44.13,0,0,0-5.49.52l-2.74.48-2.72.64a50.36,50.36,0,0,0-10.56,4Z"/><path class="cls-14" d="M174.15,190.08a9.28,9.28,0,0,1,4.3.88l1,.5,1,.56c.59.43,1.21.86,1.76,1.34l1.75,1.42a4.55,4.55,0,0,1,1.25,1.79,6.69,6.69,0,0,1,0,4.74l-.45.21a8.28,8.28,0,0,1-2.23-1.05,7.78,7.78,0,0,1-1.57-1.25,4,4,0,0,1-1-1.51,9,9,0,0,0-.76-1.7c-.3-.54-.66-1-1-1.54l-.55-.75L177,193a11,11,0,0,0-2.92-2.44Z"/><path class="cls-14" d="M107,222.75a22.37,22.37,0,0,1,1.84,4.83,43.59,43.59,0,0,1,.91,4.55c.22,1.49.35,3,.5,4.43s.23,2.95.59,4.85a7.37,7.37,0,0,1-4.29-3.52,13,13,0,0,1-1.74-5,15.46,15.46,0,0,1,.12-5.17A11.85,11.85,0,0,1,107,222.75Z"/><path class="cls-14" d="M103.92,225.71a9.76,9.76,0,0,1-3,3.23,12.44,12.44,0,0,1-3.6,1.77,11.63,11.63,0,0,1-4.05.51,7.83,7.83,0,0,1-4.24-1.37,18.21,18.21,0,0,1,3.41-2.47,17.17,17.17,0,0,1,3.43-1.46,16.63,16.63,0,0,1,3.73-.67A12.67,12.67,0,0,1,103.92,225.71Z"/><path class="cls-14" d="M71.81,183.42c.37,1.3.67,2.13.86,2.92a9.58,9.58,0,0,1,.34,2.14,9.71,9.71,0,0,1-.2,2.26,11.41,11.41,0,0,1-.35,1.36,12,12,0,0,1-.65,1.67A5.15,5.15,0,0,1,69,191.72a5.83,5.83,0,0,1-.14-6.29A4.16,4.16,0,0,1,71.81,183.42Z"/><path class="cls-14" d="M67.41,186A7.44,7.44,0,0,1,64.05,188a8.68,8.68,0,0,1-3.51.23,8,8,0,0,1-3.46-1.31,6.31,6.31,0,0,1-1.48-1.4,9,9,0,0,1-.53-.95,3.6,3.6,0,0,1-.2-1.1h1l.86-.1c.57-.08,1-.12,1.55-.17a13.69,13.69,0,0,1,2.93.1,11.87,11.87,0,0,1,3,.81A10.74,10.74,0,0,1,67.41,186Z"/><path class="cls-14" d="M106.83,111a11,11,0,0,1-4.14-3.34,16,16,0,0,1-2.48-4.44,15.74,15.74,0,0,1-1-5,11.44,11.44,0,0,1,1-5.22,22,22,0,0,1,2.82,4.27,36.5,36.5,0,0,1,1.86,4.23,37.34,37.34,0,0,1,1.3,4.44A24.84,24.84,0,0,1,106.83,111Z"/><path class="cls-14" d="M221.61,266a15.5,15.5,0,0,1,1,6.24,22.54,22.54,0,0,1-1,6.09A20.46,20.46,0,0,1,218.8,284a13,13,0,0,1-4.87,4.16c.37-2.21.85-4.05,1.33-5.89s1-3.61,1.57-5.39,1.21-3.56,2-5.36A33.69,33.69,0,0,1,221.61,266Z"/><path class="cls-14" d="M275,248.33a20,20,0,0,1,2.82,6.27,27.48,27.48,0,0,1,1,6.63,24.23,24.23,0,0,1-.67,6.76,13.85,13.85,0,0,1-3.15,6.25c-.31-2.39-.57-4.46-.77-6.57s-.35-4.18-.4-6.28-.05-4.23.1-6.39A33,33,0,0,1,275,248.33Z"/></g></g></g></g><g id="tacoman"><g id="sombrero"><path class="cls-15" d="M313.26,319.9c.75-.85,14.23-51.84,25-54.6S354,261.23,373.45,314Z"/><path class="cls-16" d="M442,327.15a67.51,67.51,0,0,1-27.28,42.4c-19.9,14.24-56.58,30.51-118.06,26.69a27.53,27.53,0,0,0-3,.11c-6.16.33-42.87.93-49.42-31.05C237,330.36,257,312,285.36,310c27.9-1.94,48,12.68,106.06-7.71,2.57-.91,9.45-3.53,11.09-4.05C413.23,294.86,449.21,288.27,442,327.15Z"/><path class="cls-17" d="M249.9,379s-10.38-39.22,37.84-49.29,123.78-16.62,153-1.78"/></g><path id="right-hand" class="cls-18" d="M387,418.18s8.93-2.74,13.9-6.4S432,405,432,405s8.19-1.39,1.47-6.33a61,61,0,0,0-9.74.36c-5.63.63-1-2-1-2a113.89,113.89,0,0,1,13.36-4.83c5-1.24,2.05-7.88-1.77-7.77-2.74.08-9.91,4.41-12.76,5.86a1.21,1.21,0,0,1-1.54-1.78c.2-.27,2.2-2.31,2.51-2.61,2.26-2.15,7.18-6.92,7.86-7.43,2.21-1.67.34-19.58-19.18,8.78,0,0-.61-12.41-6.14-8.7,0,0-3.34,1.71-1.62,7.35,0,0,.6,11.3-12.74,19.1S387,418.18,387,418.18Z"/><g id="left-hand"><path class="cls-18" d="M285.59,401.31s3.49,11.51,10.49,12.7l-8.3,21.44a23.57,23.57,0,0,0-11.85-5.4Z"/><path class="cls-18" d="M273.49,372.86s-3.06,13.46,7.6,19.05c0,0,10.14,8.24,0,23,0,0,7.07,5.21-5.16,15.16,0,0-11.68,5.37-18-1.52,0,0-11.74-3.15-8.61-12.91,0,0-5.14-4.73-1.35-13.35,0,0-8-15.43,13.32-13.2,0,0-8.65-16.89,3.92-24.8S273.49,372.86,273.49,372.86Z"/><path class="cls-19" d="M261.25,389.07s8.16,2.71,9.76,6.12,2.19,9.39-23.08,7.08"/><path class="cls-19" d="M249.28,415.62s24.72,3.95,25.35-7.56c0,0,.87-4.05-4.12-7.15"/><path class="cls-19" d="M257.89,428.53s19.34,1.61,12.17-14.21"/></g><g id="clothes"><path class="cls-20" d="M395.73,564.57S382,553.38,376,553s-10.22-120.17,2.24-126.38,14.62-6.34,16.53-15.66,2.48-14.63,2.48-14.63S357.05,416.12,340,381.25a182,182,0,0,1-37.26,26.28c-8,1.9-12.2-7.62-13.77-5-4.76,7.89,9.19,24-10.23,30.19,0,0,25,21.86,33.1,48.24s-7.21,59.31-7.21,59.31l-30.53,20.59s-11.94,9.32,3.92,4.74l37.22-9.49,15-31.88a35.49,35.49,0,0,1,14.91-.34s12.66,27.47,18.09,34.08,2.15,5.6,12.77,8.14,15.46,2.37,15.46,2.37Z"/><path class="cls-21" d="M296,422.53l4.15-10.81s.67-5,4-1.2,55.23,81.71,6.14,134.72c0,0-2.85,6.18-9.06.8l-39.57-31s-3.89-3,1-7.46S324.25,435.57,296,422.53Z"/><path class="cls-16" d="M307.57,406.18a1.75,1.75,0,0,1-.46-2.76c2.63-2.85,7.59-6.61,12.75-2.11,7.55,6.59,23.26,42.88,17,57.29,0,0-2.76,3.61-4-4.89C331.68,446,316.46,410.5,307.57,406.18Z"/></g><g id="head"><path id="hair" class="cls-22" d="M317.71,397.08s-17-7.28-18.16-11.51,2.6-6.66,2.6-6.66,2.82-2.65.22-4.92-9.61-8-2.26-14.24,7.5-8.48,8.16-10.52,3.31-2,3.79-1.81,4.55.34,5.8-4.18,8.59-.9,8.59-.9,3.41,1.13,3.74-1.92,2-4.86,9.37-1.59c0,0,3.2,1.47,5.26-1.11S348,338,348,338s1.57,4.45,6.82.93,5.66-1.48,5.66-1.48a7.71,7.71,0,0,0,10.37.8c5.93-4.15,8.14,1.49,8.14,1.49s2.29,3.77,6.78.55,4.66,3.43,4.66,3.43,2,2.45-14.88,13.53a40.72,40.72,0,0,0-18.32,28.32Z"/><path class="cls-18" d="M315.15,367s2.37,6.44.45,11.42-1,15.71,8.14,22.27c8.53,6.1,22,8.42,25.88,11.75,1.4,1.2,5.32,5.3,10.83-2l4.26-6c2.26-2.38,6.7-2.47,9.23-2a13.25,13.25,0,0,0,7.35-.65c5-2,11-7.59,5.29-22.92-3-8-8.47-7.57-9.6-21.37l-10-1.62s-2.24-.62-3,3-3.78-1.48-3.78-1.48-3-5.14-7.85-1.55-6.24-1.28-6.24-1.28a4.16,4.16,0,0,0-6.11,1.32c-2.6,3.89-9.15,1.51-9.15,1.51s-3.39-1.48-4.86,3.16-8.37,4.19-8.37,4.19S315.26,365.4,315.15,367Z"/><path class="cls-23" d="M309.75,384.12s-.09,3.47,1.52,5.39c3.05,3.63.3,10.71-4.61,7.92-3.93-2.24-3.22-4.51-2.78-5.32a5.68,5.68,0,0,0,.43-.94,18.28,18.28,0,0,0,1.16-6.61c-.26-3.09,3-2.85,3-2.85S310.24,381.69,309.75,384.12Z"/><path class="cls-24" d="M331.52,395.53c.07-.49.17-1,.26-1.44s.22-.94.32-1.41.21-.94.36-1.38l.41-1.35,0-.09.27-.28.36-.37a2.42,2.42,0,0,1,.31-.25,3.48,3.48,0,0,1,.69-.43,3.86,3.86,0,0,1,1.73-.35,5.18,5.18,0,0,1,2.86,1.07c.32.25.66.56.79.63l.52.38c.36.22.69.46,1,.66a22,22,0,0,0,4.28,2,11,11,0,0,0,1.11.35,10.59,10.59,0,0,0,1.14.3c.74.21,1.53.33,2.31.47s1.57.24,2.39.28,1.64.1,2.47.15,1.71,0,2.51,0c.39,0,.79,0,1.17,0s.76-.05,1.12-.1a12.22,12.22,0,0,0,4-1.08,22.14,22.14,0,0,0,4.15-3l1.2-1a12.68,12.68,0,0,1,1.39-1,5.79,5.79,0,0,1,3.3-.81l.14.48a6.13,6.13,0,0,0-2.3,1.47,22,22,0,0,0-1.7,2.27,21.15,21.15,0,0,1-3.8,4.46,13.28,13.28,0,0,1-5.32,2.59,27.49,27.49,0,0,1-5.84.64A25.3,25.3,0,0,1,343.77,397a19.64,19.64,0,0,1-4.85-3.33c-.71-.64-1.39-1.46-2-2.1a1.87,1.87,0,0,0-1-.57,1.37,1.37,0,0,0-1,.31l.05-.07-3,4.58Z"/><path class="cls-24" d="M359.8,379.07a7.73,7.73,0,0,1,5.23,3.55,6.74,6.74,0,0,1,1,3.88q0,.33-.06.66c-.05.24-.11.48-.17.72a7.38,7.38,0,0,1-.6,1.49,6.87,6.87,0,0,1-2.32,2.35,7.54,7.54,0,0,1-4.51,1,8.26,8.26,0,0,1-1.66-.35c-.25-.09-.51-.16-.75-.26l-.67-.34a9.13,9.13,0,0,1-4.12-4.51l.15-.47c.78.2,1.54.42,2.31.57a21,21,0,0,0,2.31.47,7,7,0,0,0,4.36-.37c1.22-.61,1.24-2.34.85-3.78a15,15,0,0,0-.77-2.19,18,18,0,0,0-1-2.13Z"/><path class="cls-24" d="M339.08,383.14a5.82,5.82,0,0,1-.34-4.56,5.16,5.16,0,0,1,2.81-2.95,5.9,5.9,0,0,1,5,.09,4.05,4.05,0,0,1,2.11,4.54l-.33.38-.57-.34a1.81,1.81,0,0,0-.58-.27,4.19,4.19,0,0,0-.59-.22l-.6-.11a4.72,4.72,0,0,0-2.41.48,8.88,8.88,0,0,0-2.19,1.41,19.76,19.76,0,0,0-1.94,1.84Z"/><path class="cls-24" d="M365.42,377.79a4.68,4.68,0,0,1,1-4.52,5.18,5.18,0,0,1,.41-.4c.16-.12.33-.23.5-.34a4.15,4.15,0,0,1,1.19-.51,4.28,4.28,0,0,1,1.42-.21,4.67,4.67,0,0,1,1.55.21,4.47,4.47,0,0,1,1.45.63,7.4,7.4,0,0,1,.65.44,4.1,4.1,0,0,1,.51.51,4.6,4.6,0,0,1,1.17,2.27,4.69,4.69,0,0,1-.18,2.23,6.19,6.19,0,0,1-1.44,2.09l-.47.15-.56-1.15a12.22,12.22,0,0,0-.66-1,3.33,3.33,0,0,0-1.79-1.31A3.67,3.67,0,0,0,368,377a9.38,9.38,0,0,0-2.19,1.15Z"/><path class="cls-24" d="M331.23,374a11.08,11.08,0,0,1,2.86-4.52,12.83,12.83,0,0,1,4.5-2.9,9.9,9.9,0,0,1,2.9-.62,6.53,6.53,0,0,1,3.31.64,4.66,4.66,0,0,1,2.32,2.52,4.6,4.6,0,0,1,0,2.93,10.17,10.17,0,0,0-2-1.45,2.73,2.73,0,0,0-1.56-.26,15.74,15.74,0,0,0-3.28.92c-1.27.47-2.65,1-4.13,1.53A25,25,0,0,1,331.23,374Z"/><path class="cls-24" d="M361.07,373.3a8.23,8.23,0,0,1,1-5.12,7.79,7.79,0,0,1,3.26-3.12,8.15,8.15,0,0,1,5.47-.74,5.48,5.48,0,0,1,3.17,1.93,3.41,3.41,0,0,1,.65,1.69,3.79,3.79,0,0,1,0,.83,3.45,3.45,0,0,1-.28.78l-.45.23a2.86,2.86,0,0,0-2.84-1.47,9,9,0,0,0-3.38,1.19,24.79,24.79,0,0,0-3.2,1.91c-.51.36-1,.74-1.51,1.12s-1,.74-1.5,1.13Z"/></g></g></svg>